<svg width="48" height="48" viewBox="0 0 48 48" fill="none" xmlns="http://www.w3.org/2000/svg">
<rect width="48" height="48" rx="24" fill="#015B99"/>
<path d="M33.7725 30.7033C33.4062 31.5418 32.9727 32.3136 32.4704 33.0232C31.7857 33.9906 31.2251 34.6602 30.7931 35.032C30.1233 35.6424 29.4058 35.955 28.6374 35.9728C28.0857 35.9728 27.4205 35.8172 26.6461 35.5017C25.8692 35.1876 25.1552 35.032 24.5024 35.032C23.8177 35.032 23.0834 35.1876 22.2979 35.5017C21.5113 35.8172 20.8776 35.9816 20.393 35.9979C19.6562 36.0291 18.9217 35.7076 18.1886 35.032C17.7207 34.6276 17.1354 33.9343 16.4343 32.9521C15.682 31.9033 15.0636 30.687 14.5791 29.3004C14.0602 27.8026 13.8 26.3523 13.8 24.9482C13.8 23.3398 14.1508 21.9526 14.8532 20.7901C15.4053 19.8564 16.1398 19.1198 17.059 18.5791C17.9783 18.0383 18.9715 17.7628 20.0411 17.7452C20.6264 17.7452 21.3939 17.9246 22.3477 18.2771C23.2988 18.6309 23.9095 18.8103 24.1772 18.8103C24.3774 18.8103 25.0558 18.6005 26.2058 18.1823C27.2934 17.7945 28.2113 17.6339 28.9633 17.6972C31.0009 17.8601 32.5317 18.6561 33.5497 20.0901C31.7274 21.1843 30.826 22.7169 30.8439 24.6829C30.8603 26.2142 31.4209 27.4886 32.5227 28.5004C33.022 28.97 33.5796 29.333 34.2001 29.5907C34.0655 29.9774 33.9235 30.3477 33.7725 30.7033ZM29.0993 12.4801C29.0993 13.6804 28.6568 14.8011 27.7748 15.8384C26.7104 17.0716 25.4229 17.7841 24.0268 17.6717C24.009 17.5277 23.9987 17.3761 23.9987 17.2169C23.9987 16.0646 24.5049 14.8315 25.4038 13.8232C25.8526 13.3127 26.4234 12.8882 27.1155 12.5496C27.8062 12.2161 28.4595 12.0316 29.0739 12C29.0918 12.1605 29.0993 12.3209 29.0993 12.4801V12.4801Z" fill="white"/>
</svg>
