<svg width="21" height="20" viewBox="0 0 21 20" fill="none" xmlns="http://www.w3.org/2000/svg">
<path d="M18.8333 4.04161V13.9499C18.8333 14.7583 18.175 15.4999 17.3667 15.5999L17.1083 15.6333C15.7417 15.8166 13.8167 16.3833 12.2667 17.0333C11.725 17.2583 11.125 16.8499 11.125 16.2583V4.66661C11.125 4.35828 11.3 4.07494 11.575 3.92494C13.1 3.09994 15.4083 2.36661 16.975 2.23328H17.025C18.025 2.23328 18.8333 3.04161 18.8333 4.04161Z" fill="#2E2E2E"/>
<path d="M9.42487 3.92494C7.89987 3.09994 5.59154 2.36661 4.02487 2.23328H3.96654C2.96654 2.23328 2.1582 3.04161 2.1582 4.04161V13.9499C2.1582 14.7583 2.81654 15.4999 3.62487 15.5999L3.8832 15.6333C5.24987 15.8166 7.17487 16.3833 8.72487 17.0333C9.26654 17.2583 9.86654 16.8499 9.86654 16.2583V4.66661C9.86654 4.34994 9.69987 4.07494 9.42487 3.92494ZM4.66654 6.44994H6.54154C6.8832 6.44994 7.16654 6.73328 7.16654 7.07494C7.16654 7.42494 6.8832 7.69994 6.54154 7.69994H4.66654C4.32487 7.69994 4.04154 7.42494 4.04154 7.07494C4.04154 6.73328 4.32487 6.44994 4.66654 6.44994ZM7.16654 10.1999H4.66654C4.32487 10.1999 4.04154 9.92494 4.04154 9.57494C4.04154 9.23328 4.32487 8.94994 4.66654 8.94994H7.16654C7.5082 8.94994 7.79154 9.23328 7.79154 9.57494C7.79154 9.92494 7.5082 10.1999 7.16654 10.1999Z" fill="#2E2E2E"/>
</svg>
