<svg width="66" height="66" viewBox="0 0 66 66" fill="none" xmlns="http://www.w3.org/2000/svg">
<path d="M46.75 60.5H19.25C18.1225 60.5 17.1875 59.565 17.1875 58.4375C17.1875 57.31 18.1225 56.375 19.25 56.375H46.75C47.8775 56.375 48.8125 57.31 48.8125 58.4375C48.8125 59.565 47.8775 60.5 46.75 60.5Z" fill="white"/>
<path d="M55.9626 15.1794L44.9626 23.0444C43.5051 24.0894 41.4151 23.4569 40.7826 21.7794L35.5851 7.91938C34.7051 5.52688 31.3226 5.52688 30.4426 7.91938L25.2176 21.7519C24.5851 23.4569 22.5226 24.0894 21.0651 23.0169L10.0651 15.1519C7.86511 13.6119 4.95011 15.7844 5.85761 18.3419L17.2976 50.3794C17.6826 51.4794 18.7276 52.1944 19.8826 52.1944H46.0901C47.2451 52.1944 48.2901 51.4519 48.6751 50.3794L60.1151 18.3419C61.0501 15.7844 58.1351 13.6119 55.9626 15.1794ZM39.8751 40.5619H26.1251C24.9976 40.5619 24.0626 39.6269 24.0626 38.4994C24.0626 37.3719 24.9976 36.4369 26.1251 36.4369H39.8751C41.0026 36.4369 41.9376 37.3719 41.9376 38.4994C41.9376 39.6269 41.0026 40.5619 39.8751 40.5619Z" fill="white"/>
</svg>
