<svg width="101" height="120" viewBox="0 0 101 120" fill="none" xmlns="http://www.w3.org/2000/svg">
<path d="M72.2847 70.9295C72.228 70.9201 72.1686 70.9187 72.1106 70.9066C71.6462 70.8472 71.1818 70.7946 70.7093 70.75C70.7093 70.7959 70.6958 70.8432 70.6958 70.8904C70.685 71.0308 70.6634 71.1631 70.6485 71.3035C70.5621 72.0838 70.3286 72.8398 69.9654 73.5702C67.5192 79.7289 59.6001 91.3982 54.9399 98.0254L53.9814 84.2594C55.3436 83.5628 56.5127 82.4045 57.2633 81.064C57.8019 80.1014 58.134 79.0498 58.134 77.9752C58.134 77.9752 54.6578 79.5156 51.1073 79.5156C50.9048 79.5156 50.7036 79.5142 50.4998 79.5034C50.2973 79.5142 50.0961 79.5156 49.8923 79.5156C46.3418 79.5156 42.8655 77.9752 42.8655 77.9752C42.8655 79.0498 43.1963 80.1014 43.7363 81.064C44.4869 82.4045 45.6587 83.5602 47.0181 84.2594L46.0583 98.0254C41.3981 91.3982 33.4817 79.7275 31.0355 73.5702C30.6696 72.8398 30.4401 72.0838 30.3524 71.3035C30.3362 71.1631 30.3119 71.0308 30.3051 70.8904C30.3038 70.8445 30.2876 70.7973 30.2876 70.75C29.8178 70.7946 29.3534 70.8472 28.889 70.9066C28.8309 70.9187 28.7702 70.9201 28.7148 70.9295C12.5189 73.1854 0.0556642 87.0877 0.0556642 103.905C0.0543142 122.292 14.9624 122.25 33.3521 122.25H50.4998H67.6475C86.0345 122.25 100.944 122.292 100.944 103.905C100.944 87.0877 88.482 73.1854 72.2847 70.9295Z" fill="#18B27C"/>
<path d="M23.7943 52.8235C24.4882 53.0098 25.2199 53.1138 25.98 53.1138H27.4758C27.6 53.1138 27.7188 53.0962 27.8416 53.0908C31.8282 65.5486 40.4641 74.1954 50.5014 74.1954C59.5626 74.1954 67.4803 67.1403 71.8705 56.6076C73.3609 55.5478 74.6488 54.3693 75.6397 53.0746C76.123 53.0368 76.5982 52.972 77.0518 52.86C80.4768 52.0149 83.0053 49.0962 83.0053 45.6132V39.7258C83.0053 36.2442 80.4768 33.3241 77.0518 32.479V25.7709C77.0505 11.9739 65.1057 0.75 50.4217 0.75C35.7378 0.75 23.7943 11.9739 23.7943 25.7722V32.5182C20.449 33.4119 17.9961 36.2995 17.9961 39.7272V45.6145C17.9961 49.0449 20.449 51.9285 23.7943 52.8235ZM50.4217 5.97315C60.8829 5.97315 69.5634 13.1781 71.1955 22.5781C66.6555 15.6742 59.082 11.1463 50.5 11.1463C41.7898 11.1463 34.1164 15.8065 29.5993 22.8859C31.0938 13.336 39.8499 5.97315 50.4217 5.97315ZM29.3496 42.7579C30.1974 43.0347 31.168 43.4748 32.2143 44.2038C32.2143 44.2038 29.7276 29.4442 34.9777 27.376C34.9777 27.376 42.2205 30.8914 50.5 31.1196C58.7796 30.8914 66.0223 27.376 66.0223 27.376C71.2725 29.4456 68.7817 44.2038 68.7817 44.2038C69.7659 43.5207 70.6839 43.0819 71.4966 42.8038V47.6706C71.0443 49.8238 70.449 51.8812 69.7146 53.8131C66.3423 56.1513 61.5363 57.8077 56.1241 58.2694C55.5058 57.3136 54.4353 56.6791 53.2108 56.6791H48.5911C46.666 56.6791 45.1108 58.2343 45.1108 60.1554C45.1108 62.0764 46.666 63.6316 48.5911 63.6316H53.2108C54.5514 63.6316 55.7016 62.8689 56.2767 61.7551C60.2929 61.4419 63.9568 60.5374 67.1145 59.2117C63.0874 66.0184 57.1461 70.3452 50.5 70.3452C40.4074 70.3452 31.9294 60.3997 29.3496 46.8633V42.7579Z" fill="#18B27C"/>
</svg>
