<svg width="36" height="36" viewBox="0 0 36 36" fill="none" xmlns="http://www.w3.org/2000/svg">
<g id="vuesax/bold/like">
<g id="Group">
<path id="Vector" d="M12.585 27.735V12.495C12.585 11.895 12.765 11.31 13.095 10.815L17.19 4.72496C17.835 3.74996 19.44 3.05996 20.805 3.56996C22.275 4.06496 23.25 5.71496 22.935 7.18496L22.155 12.09C22.095 12.54 22.215 12.945 22.47 13.26C22.725 13.545 23.1 13.725 23.505 13.725H29.67C30.855 13.725 31.875 14.205 32.475 15.045C33.045 15.855 33.15 16.905 32.775 17.97L29.085 29.205C28.62 31.065 26.595 32.58 24.585 32.58H18.735C17.73 32.58 16.32 32.235 15.675 31.59L13.755 30.105C13.02 29.55 12.585 28.665 12.585 27.735Z" fill="white"/>
<path id="Vector_2" d="M7.815 9.56995H6.27C3.945 9.56995 3 10.4699 3 12.6899V27.7799C3 29.9999 3.945 30.8999 6.27 30.8999H7.815C10.14 30.8999 11.085 29.9999 11.085 27.7799V12.6899C11.085 10.4699 10.14 9.56995 7.815 9.56995Z" fill="white"/>
</g>
</g>
</svg>
