<svg width="24" height="24" viewBox="0 0 24 24" fill="none" xmlns="http://www.w3.org/2000/svg">
<path d="M7.6 18.4301V17.8301H7C5.63635 17.8301 4.5466 17.3781 3.79926 16.6308C3.05193 15.8835 2.6 14.7937 2.6 13.4301V7.43005C2.6 6.0664 3.05193 4.97665 3.79926 4.22932C4.5466 3.48199 5.63635 3.03005 7 3.03005H17C18.3637 3.03005 19.4534 3.48199 20.2007 4.22932C20.9481 4.97665 21.4 6.0664 21.4 7.43005V13.4301C21.4 14.7937 20.9481 15.8835 20.2007 16.6308C19.4534 17.3781 18.3637 17.8301 17 17.8301H13H12.8187L12.6677 17.9305L8.2177 20.8905L8.21768 20.8904L8.212 20.8943C7.9595 21.0665 7.6 20.8892 7.6 20.5601V18.4301ZM13.5928 10.9493L13.5928 10.9493L13.5965 10.9468L13.6077 10.9392C13.9333 10.7189 15.01 9.99021 15.01 8.53005C15.01 6.86868 13.6614 5.52005 12 5.52005C10.3386 5.52005 8.99 6.86868 8.99 8.53005C8.99 9.27142 9.59863 9.88005 10.34 9.88005C10.6288 9.88005 10.8974 9.78771 11.1177 9.63117C10.857 10.0118 10.65 10.5146 10.65 11.1601V11.3701C10.65 11.9222 10.9876 12.4007 11.4662 12.609C10.9821 12.817 10.65 13.2993 10.65 13.8501C10.65 14.5862 11.2434 15.2001 12 15.2001C12.7566 15.2001 13.35 14.5862 13.35 13.8501C13.35 13.2993 13.0179 12.817 12.5338 12.609C13.0124 12.4007 13.35 11.9222 13.35 11.3701V11.1601C13.35 11.152 13.3503 11.146 13.3506 11.1417C13.358 11.1325 13.3745 11.1142 13.4071 11.0861C13.4482 11.0508 13.5071 11.0064 13.5928 10.9493ZM12.0578 8.7309C11.9447 8.80841 11.7523 8.94015 11.5456 9.13476C11.6379 8.9525 11.69 8.74696 11.69 8.53005C11.69 8.36142 11.8314 8.22005 12 8.22005C12.1686 8.22005 12.31 8.36142 12.31 8.53005C12.31 8.53071 12.31 8.53135 12.31 8.53196C12.3019 8.54161 12.2863 8.55834 12.2584 8.58259C12.2197 8.61634 12.1642 8.65876 12.0841 8.7129L12.0841 8.71288L12.0801 8.71563C12.0731 8.72046 12.0656 8.72555 12.0578 8.7309Z" fill="#0065FF" stroke="#0065FF" stroke-width="1.2"/>
</svg>
