<svg width="21" height="20" viewBox="0 0 21 20" fill="none" xmlns="http://www.w3.org/2000/svg">
<path d="M15.1084 6.47496C15.05 6.46663 14.9917 6.46663 14.9334 6.47496C13.6417 6.43329 12.6167 5.37496 12.6167 4.07496C12.6167 2.74996 13.6917 1.66663 15.025 1.66663C16.35 1.66663 17.4334 2.74163 17.4334 4.07496C17.425 5.37496 16.4 6.43329 15.1084 6.47496Z" fill="#2E2E2E"/>
<path d="M17.8252 12.25C16.8918 12.875 15.5835 13.1083 14.3752 12.95C14.6918 12.2666 14.8585 11.5083 14.8668 10.7083C14.8668 9.87497 14.6835 9.0833 14.3335 8.39164C15.5668 8.22497 16.8752 8.4583 17.8168 9.0833C19.1335 9.94997 19.1335 11.375 17.8252 12.25Z" fill="#2E2E2E"/>
<path d="M5.86647 6.47496C5.9248 6.46663 5.98314 6.46663 6.04147 6.47496C7.33314 6.43329 8.35814 5.37496 8.35814 4.07496C8.35814 2.74163 7.28314 1.66663 5.9498 1.66663C4.6248 1.66663 3.5498 2.74163 3.5498 4.07496C3.5498 5.37496 4.5748 6.43329 5.86647 6.47496Z" fill="#2E2E2E"/>
<path d="M5.95843 10.7083C5.95843 11.5167 6.13343 12.2833 6.4501 12.975C5.2751 13.1 4.0501 12.85 3.1501 12.2583C1.83343 11.3833 1.83343 9.95834 3.1501 9.08334C4.04176 8.48334 5.3001 8.24167 6.48343 8.37501C6.14176 9.07501 5.95843 9.86667 5.95843 10.7083Z" fill="#2E2E2E"/>
<path d="M10.6 13.225C10.5333 13.2167 10.4583 13.2167 10.3833 13.225C8.85 13.175 7.625 11.9167 7.625 10.3667C7.63333 8.78333 8.90833 7.5 10.5 7.5C12.0833 7.5 13.3667 8.78333 13.3667 10.3667C13.3583 11.9167 12.1417 13.175 10.6 13.225Z" fill="#2E2E2E"/>
<path d="M7.8915 14.95C6.63317 15.7916 6.63317 17.175 7.8915 18.0083C9.32484 18.9666 11.6748 18.9666 13.1082 18.0083C14.3665 17.1666 14.3665 15.7833 13.1082 14.95C11.6832 13.9916 9.33317 13.9916 7.8915 14.95Z" fill="#2E2E2E"/>
</svg>
