<svg width="56" height="57" viewBox="0 0 56 57" fill="none" xmlns="http://www.w3.org/2000/svg">
<rect x="-0.000488281" y="0.5" width="56" height="56" rx="28" fill="#015B99" fill-opacity="0.85"/>
<path d="M34.8889 29.3459C34.5359 30.6889 32.8659 31.6379 29.5249 33.5359C26.2949 35.3709 24.6799 36.2879 23.3789 35.9199C22.8397 35.767 22.3491 35.4773 21.9549 35.0789C20.9989 34.1139 20.9989 32.2429 20.9989 28.4999C20.9989 24.7569 20.9989 22.8859 21.9549 21.9209C22.3492 21.5228 22.8398 21.2334 23.3789 21.0809C24.6799 20.7109 26.2949 21.6289 29.5249 23.4639C32.8649 25.3619 34.5359 26.3109 34.8899 27.6539C35.0369 28.2083 35.0369 28.7914 34.8899 29.3459" fill="white"/>
</svg>
