<svg width="390" height="184" viewBox="0 0 390 184" fill="none" xmlns="http://www.w3.org/2000/svg">
<g clip-path="url(#clip0_1217_8614)">
<path d="M0 0H390V164C390 175.046 381.046 184 370 184H20C8.9543 184 0 175.046 0 164V0Z" fill="#015B99"/>
<path opacity="0.35" d="M192.474 569C69.8315 569 -52.7912 569 -175.434 569C-184.381 569 -185 568.401 -185 559.542C-185 386.338 -185 213.134 -185 39.9295C-185 30.6307 -182.064 28.5754 -173.537 31.9278C-81.5895 68.0851 2.68863 117.213 78.3792 180.827C82.2935 184.12 84.5103 184.1 88.3847 180.827C160.401 120.146 240.285 72.4352 327.559 37.1159C379.384 16.1439 432.547 -0.458191 487.787 -9.67711C508.318 -13.1093 529.147 -14.8653 549.838 -17.3795C553.872 -17.8784 557.926 -18.2974 561.94 -18.8761C567.272 -19.6344 570.727 -16.8806 570.967 -11.493C571.027 -10.1361 570.987 -8.77917 570.987 -7.42227C570.987 181.206 570.987 369.835 570.987 558.464C570.987 559.981 570.947 561.517 570.987 563.034C571.027 567.064 568.85 568.86 564.996 568.96C563.138 569 561.261 568.98 559.404 568.98C437.1 568.98 314.817 568.98 192.514 568.98L192.474 569ZM174.32 274.034C175.459 275.631 176.158 276.748 176.997 277.766C218.996 327.492 256.102 380.591 287.337 437.72C289.134 441.013 291.271 442.13 294.946 442.13C342.597 442.03 390.248 442.01 437.899 442.13C442.513 442.13 443.931 440.873 443.931 436.144C443.791 336.352 443.831 236.56 443.811 136.768C443.811 134.972 443.651 133.176 443.551 130.602C343.536 160.115 254.205 207.826 174.32 274.014V274.034ZM-56.1862 236.68C-56.6855 236.879 -57.2048 237.059 -57.7041 237.258C-57.7041 239.254 -57.7041 241.229 -57.7041 243.225C-57.7041 307.438 -57.6641 371.631 -57.8239 435.844C-57.8239 440.713 -56.4858 442.17 -51.5729 442.17C10.8169 442.03 73.2066 442.07 135.616 442.05C137.394 442.05 139.191 441.831 142.227 441.631C87.7656 360.876 21.7211 293.051 -56.1663 236.68H-56.1862Z" fill="#007AC9"/>
</g>
<defs>
<clipPath id="clip0_1217_8614">
<path d="M0 0H390V164C390 175.046 381.046 184 370 184H20C8.9543 184 0 175.046 0 164V0Z" fill="white"/>
</clipPath>
</defs>
</svg>
