<?xml version="1.0" encoding="UTF-8"?>
<svg id="Layer_1" data-name="Layer 1" xmlns="http://www.w3.org/2000/svg" viewBox="0 0 35 35">
  <defs>
    <style>
      .cls-1 {
        fill: #50ada2;
      }
    </style>
  </defs>
  <circle class="cls-1" cx="16.61" cy="29.59" r="2.17"/>
  <path class="cls-1" d="M30.84,20.6h-13.48c-1.7,0-3.16-1.19-3.5-2.86l-3.08-13.18c-.18-.77-.87-1.32-1.66-1.32H1.42c-.06,0-.13,.02-.17,.07-1.13,1.07-.39,2.39,.66,2.39H7.97c.42,0,.79,.3,.86,.72l2.44,13.3c.31,1.82,1.88,3.15,3.72,3.15h15.39c1.3,.14,2.15,1.76,.83,3.13-.13,.13-.31,.21-.5,.21H11.22c-.06,0-.13,.02-.17,.07-1.13,1.07-.39,2.39,.66,2.39h2.41c.38-1,1.35-1.72,2.48-1.72s2.1,.71,2.48,1.72h4.47c.38-1,1.35-1.72,2.48-1.72s2.1,.71,2.48,1.72h2.25c1.03,0,2.01-.5,2.6-1.35,1.72-2.46,.88-5.06-.96-6.25-.47-.31-1.03-.46-1.59-.46Z"/>
  <circle class="cls-1" cx="26.05" cy="29.59" r="2.17"/>
  <path class="cls-1" d="M14.15,11.86c0-.06-.05-.08-.09-.1-.74-.37-1.01-.91-1.01-1.54,0-.49,.16-.95,.5-1.38,.15-.2,.16-.2,.38-.05,.68,.44,1.35,.88,2.03,1.32,.39,.25,.77,.5,1.16,.76,.1,.07,.2,.1,.35,.07,.13-.03,.28-.04,.47-.06-.17-.12-.3-.21-.44-.3-.9-.6-1.79-1.21-2.72-1.78-.12-.07-.24-.15-.33-.24-.12-.13-.09-.2,.12-.21,.05,0,.1,0,.15,0,3.59,0,7.18,0,10.78,0,.09,0,.19,0,.28,0,.4-.02,.74,.09,1.05,.27,.44,.25,.86,.53,1.29,.79,.71,.43,1.42,.86,2.14,1.29,.15,.09,.3,.18,.42,.28,.13,.12,.17,.25,.09,.39-.07,.13-.22,.19-.41,.2-.22,0-.45,.02-.67,.02-3.48,0-6.96,0-10.44,0-.35,0-.71,0-1.06,0-.8-.03-1.11,.37-1.21,.75-.07,.23-.05,.47,.02,.7,.14,.43,.57,.68,1.17,.68,3.14,0,6.27,0,9.41,0,.89,0,1.77,.01,2.66-.01,.31,0,.49,.18,.37,.35-.04,.06-.14,.07-.19,.13,0,.05,.06,.07,.1,.1,.09,.08,.14,.17,.15,.28,.01,.2-.11,.29-.38,.3-.44,0-.88,0-1.32,0-3.55,0-7.1,0-10.65,0-.18,0-.36,0-.54,.02-.18,.02-.33,.07-.46,.16-.59,.38-.67,1.19-.15,1.62,.23,.19,.5,.29,.86,.29,3.74-.01,7.48-.02,11.21-.03,.25,0,.5-.01,.75-.02,.06,0,.12,0,.18,0,.3,.02,.45,.17,.36,.38-.04,.09-.03,.14,.09,.18,.11,.04,.21,.09,.28,.17,.1,.1,.13,.22,.05,.34-.08,.12-.2,.19-.39,.19-.13,0-.26,0-.39,0-3.7,0-7.41,0-11.11,0-.28,0-.57,0-.85,0-.43,0-.74,.16-.93,.43-.23,.34-.25,.7-.11,1.06,.13,.33,.57,.57,1.04,.58,.42,.01,.84,0,1.27,0,3.38,0,6.77,0,10.15,0,.19,0,.38,0,.57,0,.25,0,.38,.06,.42,.21,.04,.14-.11,.31-.31,.36-.12,.03-.26,.03-.38,.03-1.15,0-2.31,0-3.46,0-2.76,0-5.51-.01-8.27-.02-.21,0-.43,0-.64-.04-.34-.07-.63-.2-.87-.39-.94-.76-1.91-1.5-2.95-2.18-.42-.27-.59-.63-.65-1.03-.06-.44,0-.87,.18-1.3,.06-.13,.14-.26,.24-.38,.16-.2,.27-.26,.64-.4-.12-.07-.24-.13-.34-.2-.36-.26-.58-.58-.67-.95-.15-.57-.03-1.11,.33-1.62,.15-.21,.32-.41,.67-.44Z"/>
  <path class="cls-1" d="M23.92,16.12c1.89,0,3.79,0,5.68,0,.07,0,.14,0,.21,0,.05,0,.08,.02,.09,.05,0,.04-.02,.06-.07,.07-.09,0-.17,0-.26,0-3.5,0-7.01,0-10.51,0-.28,0-.55,0-.83,0-.06,0-.12,0-.18,0-.06,0-.09-.04-.09-.08,0-.05,.06-.04,.1-.04,.07,0,.14,0,.21,0,1.89,0,3.77,0,5.66,0h0Z"/>
  <path class="cls-1" d="M26.17,12.98c-1.2,0-2.39,0-3.59,0-.09,0-.27,.06-.27-.07,0-.09,.17-.05,.26-.05,2.39,0,4.78,0,7.17-.01,.08,0,.15,0,.23,0,.03,0,.07,.01,.07,.04,0,.04-.02,.06-.07,.07-.09,0-.17,0-.26,0-1.19,0-2.37,0-3.56,0h0Z"/>
  <path class="cls-1" d="M26.37,19.39c1.18,0,2.36,0,3.54,0,.06,0,.12,0,.18,0,.04,0,.06,.03,.06,.05,0,.03-.02,.05-.05,.06-.09,0-.17,0-.26,.01-1.56,0-3.11,0-4.67,0-.77,0-1.53,0-2.3,0-.07,0-.14,0-.2-.01-.04,0-.06-.04-.06-.08,0-.03,.04-.04,.08-.04,.07,0,.14,0,.21,0,1.16,0,2.32,0,3.48,0h0Z"/>
  <path class="cls-1" d="M21.68,15.6c-1.15,0-2.29,0-3.44,0-.07,0-.14,0-.21,0-.04,0-.09-.01-.09-.05,0-.05,.04-.06,.1-.07,.06,0,.12,0,.18,0,1.23,0,2.46,0,3.69,0,1.07,0,2.14,0,3.2,0,.06,0,.12,0,.18,0,.06,0,.13,0,.13,.06,0,.06-.08,.06-.14,.06-.07,0-.14,0-.21,0-1.14,0-2.27,0-3.41,0h0Z"/>
  <path class="cls-1" d="M21.85,12.34c-.78,0-1.57,0-2.35,0-.08,0-.23,.04-.23-.06,0-.1,.14-.06,.22-.06,1.57,0,3.13,0,4.7,.01,.09,0,.25-.04,.24,.07,0,.1-.15,.06-.23,.06-.78,0-1.57,0-2.35,0,0,0,0,0,0-.01Z"/>
  <path class="cls-1" d="M22.05,18.79c.8,0,1.6,0,2.4,0,.08,0,.23-.04,.24,.05,0,.12-.16,.07-.24,.07-1.6,0-3.2,0-4.8,0-.09,0-.27,.05-.26-.08,0-.1,.17-.05,.26-.05,.8,0,1.6,0,2.4,0h0Z"/>
  <path class="cls-1" d="M28.21,12.36c-.5,0-1,0-1.5,0-.05,0-.1,0-.15,0-.04,0-.06-.02-.07-.05,0-.03,.01-.07,.06-.07,.05,0,.1,0,.15,0,1.01,0,2.03,0,3.04,0,.08,0,.22-.03,.22,.07,0,.09-.13,.06-.21,.06-.52,0-1.03,0-1.55,0h0Z"/>
  <path class="cls-1" d="M28.44,18.91c-.49,0-.98,0-1.47,0-.07,0-.18,.02-.18-.06,0-.08,.11-.06,.18-.06,.98,0,1.96,0,2.94,0,.03,0,.07,0,.1,0,.05,0,.07,.03,.07,.06,0,.04-.03,.06-.07,.07-.07,0-.14,0-.21,0-.45,0-.91,0-1.36,0,0,0,0,0,0-.01Z"/>
  <path class="cls-1" d="M28.71,15.62c-.32,0-.63,0-.95,0-.05,0-.1,0-.15,0-.04,0-.05-.03-.06-.06,0-.04,.02-.06,.06-.07,.05,0,.1,0,.15,0,.64,0,1.29,0,1.93,0,.03,0,.05,0,.08,0,.07,0,.15,0,.15,.07,0,.08-.09,.06-.16,.06-.35,0-.7,0-1.06,0h0Z"/>
</svg>