<svg width="5" height="6" viewBox="0 0 5 6" fill="none" xmlns="http://www.w3.org/2000/svg">
<path d="M2.608 5.696C2.49067 5.696 2.39467 5.65333 2.32 5.568C2.24533 5.472 2.21333 5.36 2.224 5.232L2.352 3.824C2.36267 3.792 2.35733 3.77067 2.336 3.76C2.31467 3.74933 2.288 3.75467 2.256 3.776L1.088 4.592C0.981333 4.66667 0.869333 4.69333 0.752 4.672C0.645333 4.65067 0.554667 4.58133 0.48 4.464C0.416 4.336 0.405333 4.21867 0.448 4.112C0.490667 4.00533 0.570667 3.93067 0.688 3.888L1.984 3.28C2.016 3.26933 2.032 3.25333 2.032 3.232C2.032 3.21067 2.016 3.19467 1.984 3.184L0.688 2.576C0.56 2.512 0.48 2.42667 0.448 2.32C0.416 2.20267 0.432 2.08533 0.496 1.968C0.56 1.86133 0.645333 1.79733 0.752 1.776C0.869333 1.75467 0.981333 1.78133 1.088 1.856L2.256 2.688C2.288 2.69867 2.31467 2.69867 2.336 2.688C2.35733 2.67733 2.36267 2.656 2.352 2.624L2.224 1.216C2.21333 1.088 2.24533 0.981333 2.32 0.896C2.40533 0.810666 2.512 0.768 2.64 0.768C2.75733 0.768 2.85333 0.810666 2.928 0.896C3.01333 0.981333 3.04533 1.088 3.024 1.216L2.912 2.624C2.90133 2.656 2.90667 2.67733 2.928 2.688C2.94933 2.69867 2.97067 2.69867 2.992 2.688L4.176 1.856C4.28267 1.78133 4.39467 1.76 4.512 1.792C4.62933 1.81333 4.71467 1.87733 4.768 1.984C4.84267 2.112 4.85867 2.22933 4.816 2.336C4.77333 2.44267 4.69333 2.52267 4.576 2.576L3.264 3.184C3.232 3.19467 3.216 3.21067 3.216 3.232C3.216 3.25333 3.232 3.26933 3.264 3.28L4.576 3.888C4.69333 3.94133 4.77333 4.02667 4.816 4.144C4.85867 4.25067 4.84267 4.35733 4.768 4.464C4.71467 4.58133 4.62933 4.65067 4.512 4.672C4.39467 4.69333 4.28267 4.672 4.176 4.608L2.992 3.776C2.97067 3.75467 2.94933 3.74933 2.928 3.76C2.90667 3.77067 2.90133 3.792 2.912 3.824L3.024 5.232C3.04533 5.36 3.01333 5.472 2.928 5.568C2.84267 5.65333 2.736 5.696 2.608 5.696Z" fill="#FF5630"/>
</svg>
