<svg width="18" height="18" viewBox="0 0 18 18" fill="none" xmlns="http://www.w3.org/2000/svg">
<path d="M9.00033 0.666664C4.40866 0.666664 0.666992 4.40833 0.666992 9C0.666992 13.5917 4.40866 17.3333 9.00033 17.3333C13.592 17.3333 17.3337 13.5917 17.3337 9C17.3337 4.40833 13.592 0.666664 9.00033 0.666664ZM12.9837 7.08333L8.25866 11.8083C8.14199 11.925 7.98366 11.9917 7.81699 11.9917C7.65033 11.9917 7.49199 11.925 7.37533 11.8083L5.01699 9.45C4.77533 9.20833 4.77533 8.80833 5.01699 8.56666C5.25866 8.325 5.65866 8.325 5.90033 8.56666L7.81699 10.4833L12.1003 6.2C12.342 5.95833 12.742 5.95833 12.9837 6.2C13.2253 6.44166 13.2253 6.83333 12.9837 7.08333Z" fill="#0065FF"/>
</svg>
