<svg width="16" height="16" viewBox="0 0 16 16" fill="none" xmlns="http://www.w3.org/2000/svg">
<g id="vuesax/bold/timer">
<g id="Group">
<path id="Vector" d="M2.71973 8.88001C2.71973 5.96948 5.0892 3.60001 7.99973 3.60001C10.9095 3.60001 13.2797 5.9754 13.2797 8.88667C13.2797 11.7972 10.9103 14.1667 7.99973 14.1667C5.08995 14.1667 2.71973 11.7913 2.71973 8.88001ZM7.99973 9.66667C8.5492 9.66667 8.99973 9.21615 8.99973 8.66667V5.33334C8.99973 4.78386 8.5492 4.33334 7.99973 4.33334C7.45025 4.33334 6.99973 4.78386 6.99973 5.33334V8.66667C6.99973 9.21615 7.45025 9.66667 7.99973 9.66667Z" fill="#454545" stroke="#454545"/>
<path id="Vector_2" d="M9.92708 2.30001H6.07375C5.80708 2.30001 5.59375 2.08668 5.59375 1.82001C5.59375 1.55334 5.80708 1.33334 6.07375 1.33334H9.92708C10.1938 1.33334 10.4071 1.54668 10.4071 1.81334C10.4071 2.08001 10.1938 2.30001 9.92708 2.30001Z" fill="#454545"/>
</g>
</g>
</svg>
